<svg version="1.1" id="Layer_1" xmlns="http://www.w3.org/2000/svg" xmlns:xlink="http://www.w3.org/1999/xlink" x="0px" y="0px"
	 width="100%" viewBox="0 0 1000 250" enable-background="new 0 0 1000 250" xml:space="preserve">
<path fill="#FEFEFF" opacity="1.000000" stroke="none" 
	d="
M660.000000,251.000000 
	C440.000000,251.000000 220.500000,251.000000 1.000000,251.000000 
	C1.000000,167.666672 1.000000,84.333336 1.000000,1.000000 
	C334.333344,1.000000 667.666687,1.000000 1001.000000,1.000000 
	C1001.000000,84.333336 1001.000000,167.666672 1001.000000,251.000000 
	C887.500000,251.000000 774.000000,251.000000 660.000000,251.000000 
M206.970337,86.091888 
	C207.000793,113.716141 207.038437,141.340393 207.059143,168.964645 
	C207.072876,187.270416 207.038208,205.576294 207.095154,223.881897 
	C207.101761,226.008545 206.288101,228.987534 211.138641,228.686356 
	C215.104599,228.775360 219.070541,228.864365 223.000732,229.876282 
	C223.088379,240.590256 221.761932,238.925400 231.842422,238.957504 
	C256.977692,239.037552 282.113434,238.987396 307.248993,238.981491 
	C313.905121,238.979919 313.918640,238.966614 313.919220,232.354462 
	C313.923309,185.911942 313.915436,139.469421 313.927094,93.026909 
	C313.929108,85.048950 313.258240,85.960709 321.270996,85.914864 
	C338.577179,85.815826 355.883453,85.728302 373.437256,86.491615 
	C373.595306,88.640610 373.889801,90.789505 373.891266,92.938606 
	C373.918671,133.594681 373.911438,174.250778 373.911469,214.906860 
	C373.911469,229.915222 373.911469,229.915222 389.114655,228.763031 
	C389.114655,228.763031 389.124542,228.874084 389.080261,229.797150 
	C388.969330,240.283508 388.560913,238.968475 398.095886,238.980194 
	C423.731110,239.011749 449.366852,238.915222 475.001160,239.071106 
	C478.906647,239.094864 480.158051,238.029297 480.104645,234.027740 
	C479.891235,218.050171 480.141541,202.066513 479.938446,186.088669 
	C479.881195,181.582458 481.869537,180.519211 485.715179,181.141663 
	C486.854065,181.325989 487.968872,181.658707 489.519409,182.434921 
	C498.399200,195.139709 507.556396,207.663223 516.031128,220.632675 
	C519.762817,226.343506 523.597778,230.396561 530.939087,229.846603 
	C533.148743,233.701385 534.281433,238.924133 540.012451,238.934433 
	C573.669189,238.994858 607.326050,238.904205 641.790283,238.943039 
	C642.870300,238.911041 643.950317,238.879044 645.960083,238.930893 
	C674.628174,238.894638 703.296265,238.858368 732.746887,238.753845 
	C733.177490,235.525177 733.608032,232.296494 734.946655,228.984085 
	C738.298218,228.984268 741.649719,228.984451 744.996948,229.902481 
	C744.996216,230.568588 744.994934,231.234711 744.994690,231.900818 
	C744.991638,238.985809 744.991699,238.987518 751.855164,238.987762 
	C778.002258,238.988647 804.149780,238.908096 830.295898,239.068085 
	C834.618164,239.094528 836.136414,237.813385 836.070435,233.383621 
	C835.847046,218.398163 835.985229,203.407333 835.985962,188.418549 
	C835.986328,181.048737 835.987183,181.070465 843.381714,181.041107 
	C865.129883,180.954773 886.894287,181.708206 908.508423,178.062668 
	C923.634399,175.511459 938.513855,172.436081 952.125305,164.945999 
	C964.076111,158.369720 973.349182,149.471649 979.343872,136.887207 
	C984.886780,125.251091 986.205322,113.205254 986.071350,100.615425 
	C985.921326,86.522812 981.988342,73.790123 973.669800,62.488544 
	C968.651184,55.670189 963.112061,49.297958 954.261597,45.847298 
	C951.175354,43.350235 948.217834,40.670631 944.981079,38.386902 
	C928.866638,27.017241 910.522522,21.879787 891.026978,18.980246 
	C890.352539,18.963131 889.678101,18.946018 888.189880,18.889660 
	C885.795410,18.644016 883.401001,18.398373 880.596619,17.593006 
	C879.943237,17.584501 879.289795,17.575998 877.754333,17.470730 
	C865.631897,16.999567 853.511353,16.190012 841.386658,16.122070 
	C807.930908,15.934605 774.473389,16.057190 741.016602,16.057272 
	C731.078064,16.057297 731.078064,16.057468 729.723145,25.908291 
	C725.976196,25.859518 722.229309,25.810747 718.354370,24.889534 
	C718.168640,16.060251 718.168640,16.058187 709.067749,16.058090 
	C684.295593,16.057827 659.523438,16.038553 634.751465,16.101412 
	C632.838562,16.106264 630.927185,16.694056 628.336182,17.090660 
	C628.466309,18.440929 628.596436,19.791199 628.810425,22.056046 
	C628.784241,39.323986 628.758057,56.591923 628.084167,74.086090 
	C627.371216,75.738289 626.658264,77.390488 625.903442,78.303650 
	C621.153809,67.480507 616.172729,56.832500 604.937256,50.165417 
	C602.552307,48.515099 600.167358,46.864780 597.177429,44.927906 
	C579.313232,28.939816 557.793945,21.996510 534.111572,19.090233 
	C533.064758,19.005749 532.017883,18.921265 530.198853,18.726669 
	C528.117737,18.552221 526.036621,18.377773 523.466248,17.620537 
	C521.937256,17.554260 520.408203,17.487982 518.010193,17.247738 
	C515.332397,17.203979 512.654541,17.160219 509.365356,16.594364 
	C506.203735,16.536200 503.042084,16.478035 498.983063,16.203094 
	C458.735901,16.159395 418.488739,16.108467 378.241577,16.110809 
	C377.159302,16.110874 376.077087,16.687359 374.221985,16.938326 
	C373.448822,16.994781 372.675629,17.051237 371.192261,16.680906 
	C368.727844,16.473324 366.263550,16.085621 363.799042,16.084417 
	C296.417084,16.051504 229.035126,16.052824 161.653168,16.064497 
	C153.169586,16.065968 144.685989,16.156588 135.610077,16.103502 
	C135.297256,16.717489 134.984451,17.331474 134.785675,18.819330 
	C134.742538,21.151594 134.699402,23.483856 134.033264,25.959164 
	C131.270187,28.227343 131.134720,24.643387 129.710602,23.171520 
	C129.706223,21.784349 129.701843,20.397177 130.248215,18.774736 
	C129.846832,18.172987 129.445450,17.571236 128.368225,16.479071 
	C126.722427,16.338137 125.076759,16.076042 123.430824,16.074394 
	C97.624336,16.048550 71.816544,16.189821 46.012360,15.944644 
	C40.794937,15.895071 39.669292,17.671181 39.680653,22.575300 
	C39.831825,87.840454 39.781876,153.106079 39.781933,218.371582 
	C39.781937,220.535995 39.880585,222.706223 39.755108,224.863373 
	C39.594635,227.622070 40.706226,228.796585 43.523945,228.753952 
	C47.344994,228.696136 51.170170,228.910889 54.958454,229.923019 
	C54.954472,230.755997 54.947132,231.588974 54.947033,232.421951 
	C54.946236,238.985092 54.946663,238.986450 61.332787,238.986618 
	C87.322624,238.987274 113.312820,238.920258 139.301880,239.062469 
	C143.000504,239.082703 144.167068,238.059265 144.129059,234.282684 
	C143.946289,216.124954 144.029602,197.964355 144.049088,179.804810 
	C144.086441,144.986679 144.144531,110.168594 144.982956,75.179893 
	C146.587189,75.244453 148.191437,75.309006 149.858856,76.228226 
	C150.059525,85.070976 150.059555,85.057640 159.030533,85.074730 
	C174.976303,85.105103 190.922058,85.153419 206.970337,86.091888 
z"/>
<path fill="#39B6FF" opacity="1.000000" stroke="none" 
	d="
M530.916626,229.128891 
	C523.597778,230.396561 519.762817,226.343506 516.031128,220.632675 
	C507.556396,207.663223 498.399200,195.139709 489.265564,181.835724 
	C487.331512,178.862076 485.923828,176.210190 483.881805,174.203949 
	C482.341339,172.690414 479.989014,172.003220 477.712524,170.679749 
	C474.618469,170.588837 471.809937,170.766418 468.639771,170.953522 
	C467.556732,171.015305 466.835388,171.067566 465.704163,171.157043 
	C464.876068,172.843445 464.102203,174.490952 464.094360,176.142090 
	C464.012604,193.446030 464.053528,210.750565 463.729431,228.306946 
	C461.582153,228.658447 459.765991,228.842621 457.949646,228.844604 
	C435.007935,228.869705 412.066254,228.868530 389.124542,228.874084 
	C389.124542,228.874084 389.114655,228.763031 388.968384,228.359940 
	C386.916351,227.657227 385.014740,227.132416 383.104065,227.097260 
	C375.145782,226.950760 375.969849,227.813782 375.968048,219.733780 
	C375.953613,154.401611 375.966827,89.069450 375.923401,23.737318 
	C375.922119,21.814438 375.390045,19.891911 375.092804,17.723970 
	C375.080139,17.478724 374.994843,16.995043 374.994843,16.995041 
	C376.077087,16.687359 377.159302,16.110874 378.241577,16.110809 
	C418.488739,16.108467 458.735901,16.159395 499.586609,16.647060 
	C503.452332,17.099503 506.714539,17.107983 509.976746,17.116463 
	C512.654541,17.160219 515.332397,17.203979 518.569214,17.637999 
	C520.737305,18.086615 522.346436,18.144972 523.955505,18.203327 
	C526.036621,18.377773 528.117737,18.552221 530.818970,19.090939 
	C532.441467,19.496073 533.443848,19.536936 534.446289,19.577799 
	C557.793945,21.996510 579.313232,28.939816 597.554688,45.401939 
	C600.242310,48.368107 602.552734,50.860241 604.871216,53.697426 
	C605.997070,56.030289 607.114868,58.018101 608.216919,60.368149 
	C609.847290,64.462204 611.493408,68.194023 613.112183,72.276077 
	C613.160889,73.087173 613.236938,73.548027 613.240112,74.381241 
	C613.800110,76.823990 614.432861,78.894379 615.030457,81.405502 
	C615.088074,83.900238 615.180847,85.954216 615.186035,88.461319 
	C615.153442,92.606712 615.208496,96.298973 615.181763,100.417915 
	C615.103577,102.582069 615.107178,104.319550 614.826782,106.284050 
	C614.175354,108.669617 613.807983,110.828163 613.322021,113.359192 
	C613.177124,114.508980 613.150879,115.286270 612.834961,116.273041 
	C612.341553,117.656075 612.137756,118.829643 611.877869,120.271774 
	C611.834534,120.904655 611.847412,121.268974 611.542175,121.781631 
	C610.262756,123.950592 609.301392,125.971230 608.195190,128.321701 
	C606.035034,131.857941 604.019714,135.064346 601.702393,138.360672 
	C600.246216,139.960022 599.091980,141.469421 597.674683,143.092331 
	C596.934143,143.783386 596.456726,144.360947 595.659241,144.995636 
	C594.266724,146.048065 593.194214,147.043365 591.815002,148.186584 
	C586.672424,151.250793 581.836487,154.167084 576.672485,157.113190 
	C576.529114,158.181412 576.713867,159.219803 576.965881,160.588455 
	C580.386047,165.279984 583.738953,169.641235 587.105591,174.324158 
	C588.079651,175.717850 589.039856,176.789902 590.224426,178.106827 
	C591.664795,179.902390 592.880798,181.453094 594.119019,183.317047 
	C594.744812,184.132034 595.348328,184.633759 595.981567,185.443604 
	C596.658142,186.506409 597.305054,187.261078 598.001831,188.333496 
	C598.670166,189.184784 599.288574,189.718323 599.927734,190.531677 
	C600.306458,191.205322 600.664429,191.599182 601.056702,192.318542 
	C602.068420,193.739441 603.045837,194.834869 604.147705,196.246994 
	C606.530396,199.371033 608.788696,202.178360 611.079590,205.319061 
	C612.039368,206.529144 612.966492,207.405823 613.942322,208.625198 
	C617.354248,213.304291 620.717407,217.640701 624.101624,222.291412 
	C624.732239,223.096634 625.341797,223.587524 625.943726,224.052429 
	C625.936096,224.026428 625.932556,224.086136 625.979309,224.443954 
	C626.299927,226.181870 626.573730,227.561966 626.389282,228.910767 
	C606.690918,228.870514 587.450806,228.826431 568.210815,228.865234 
	C555.779297,228.890320 543.348022,229.036804 530.916626,229.128891 
M523.936768,85.364059 
	C520.598328,78.017303 513.707764,75.827843 506.831146,75.260567 
	C494.267212,74.224129 481.610718,74.297165 468.991272,73.966393 
	C467.746521,73.933769 466.491058,74.309898 465.023224,74.528702 
	C465.023224,86.243126 464.977020,97.555229 465.100220,108.865494 
	C465.111572,109.908272 466.146454,111.795807 466.801056,111.838600 
	C471.521576,112.147224 476.266541,112.081161 481.939606,112.183327 
	C492.012054,111.407715 502.246399,111.492332 512.115356,109.635399 
	C524.041565,107.391365 528.510437,97.334053 523.936768,85.364059 
z"/>
<path fill="#39B6FF" opacity="1.000000" stroke="none" 
	d="
M730.435364,25.714409 
	C731.078064,16.057468 731.078064,16.057297 741.016602,16.057272 
	C774.473389,16.057190 807.930908,15.934605 841.386658,16.122070 
	C853.511353,16.190012 865.631897,16.999567 878.323242,17.738350 
	C879.596924,18.054888 880.301758,18.103807 881.006531,18.152729 
	C883.401001,18.398373 885.795410,18.644016 888.792114,19.170673 
	C890.010315,19.447866 890.626221,19.444046 891.242126,19.440226 
	C910.522522,21.879787 928.866638,27.017241 944.981079,38.386902 
	C948.217834,40.670631 951.175354,43.350235 954.606567,46.327431 
	C958.293518,51.942711 962.086060,56.844765 964.888062,62.259377 
	C971.628235,75.284119 971.975281,89.541107 970.713867,103.622871 
	C968.914001,123.715767 959.808105,140.135849 942.568665,151.204391 
	C921.593079,164.671722 897.639709,168.006699 873.533997,169.782272 
	C857.638306,170.953094 841.633545,170.764023 825.675415,170.877701 
	C821.797424,170.905319 820.940674,172.231766 820.978516,175.815521 
	C821.142273,191.302826 821.053772,206.792877 821.045715,222.281921 
	C821.042419,228.562393 820.796692,228.843567 814.639221,228.849564 
	C794.153687,228.869553 773.668213,228.851471 753.182678,228.861420 
	C750.455566,228.862747 747.728394,228.941650 745.001282,228.984619 
	C741.649719,228.984451 738.298218,228.984268 734.155640,228.950348 
	C732.905640,228.921005 732.446716,228.925415 731.672424,228.654480 
	C731.187256,226.243729 730.869873,224.108383 730.868958,221.972916 
	C730.842529,158.700653 730.851562,95.428391 730.830261,32.156128 
	C730.829529,30.008842 730.572815,27.861647 730.435364,25.714409 
M879.900818,85.371582 
	C876.500671,78.463135 870.026855,75.811539 863.237000,75.273758 
	C850.522583,74.266724 837.721619,74.382065 824.961731,73.897530 
	C821.866821,73.780006 820.931458,74.963234 820.989380,77.955101 
	C821.143921,85.930046 821.042419,93.909935 821.042480,101.887863 
	C821.042603,111.908134 821.042419,111.910431 831.253296,112.090584 
	C833.170532,112.124405 835.088379,112.131760 837.941895,112.180618 
	C848.163025,111.368347 858.518860,111.318634 868.569641,109.542526 
	C880.030701,107.517204 883.334167,97.838516 879.900818,85.371582 
z"/>
<path fill="#39B6FF" opacity="1.000000" stroke="none" 
	d="
M223.036499,228.953369 
	C219.070541,228.864365 215.104599,228.775360 210.538483,228.284439 
	C209.609970,225.622910 208.999023,223.363815 208.994888,221.103607 
	C208.909225,174.247559 208.913254,127.391319 208.781372,80.535454 
	C208.776428,78.774765 207.584747,77.017418 206.487823,75.176254 
	C187.284943,75.187195 168.540298,75.280373 149.795670,75.373558 
	C148.191437,75.309006 146.587189,75.244453 144.127747,75.152374 
	C134.944580,74.879616 134.979630,74.879440 134.938156,66.480637 
	C134.871231,52.925667 134.752884,39.370945 134.656250,25.816120 
	C134.699402,23.483856 134.742538,21.151594 135.029816,18.297173 
	C135.583450,17.251978 135.892929,16.728937 136.202408,16.205898 
	C144.685989,16.156588 153.169586,16.065968 161.653168,16.064497 
	C229.035126,16.052824 296.417084,16.051504 363.799042,16.084417 
	C366.263550,16.085621 368.727844,16.473324 371.535034,17.338676 
	C371.924164,20.997618 371.970520,23.998789 371.729370,27.300114 
	C371.314453,29.408508 371.085358,31.216211 371.075775,33.025078 
	C371.001709,46.984524 370.970154,60.944187 370.462524,74.937805 
	C346.678375,75.039627 323.357086,75.107422 299.635681,75.203163 
	C298.852417,77.067032 298.137146,78.902519 298.134705,80.738960 
	C298.072998,126.844131 298.082581,172.949402 298.096191,219.054657 
	C298.096985,221.712219 298.239105,224.369766 298.124451,227.389603 
	C296.064667,228.119247 294.197327,228.798035 292.326904,228.806595 
	C269.230377,228.912292 246.133377,228.920242 223.036499,228.953369 
z"/>
<path fill="#3AB7FF" opacity="1.000000" stroke="none" 
	d="
M129.697479,19.010006 
	C129.701843,20.397177 129.706223,21.784349 129.451981,23.878834 
	C129.427155,27.874388 129.862732,31.162498 129.864868,34.450893 
	C129.905396,96.875404 129.896393,159.299942 129.892532,221.724487 
	C129.892120,228.508270 129.549332,228.843246 122.902763,228.858017 
	C100.266365,228.908340 77.629974,228.958496 54.993576,229.008713 
	C51.170170,228.910889 47.344994,228.696136 43.523945,228.753952 
	C40.706226,228.796585 39.594635,227.622070 39.755108,224.863373 
	C39.880585,222.706223 39.781937,220.535995 39.781933,218.371582 
	C39.781876,153.106079 39.831825,87.840454 39.680653,22.575300 
	C39.669292,17.671181 40.794937,15.895071 46.012360,15.944644 
	C71.816544,16.189821 97.624336,16.048550 123.430824,16.074394 
	C125.076759,16.076042 126.722427,16.338137 128.667999,17.011108 
	C129.211014,18.032097 129.454254,18.521051 129.697479,19.010006 
z"/>
<path fill="#39B6FF" opacity="1.000000" stroke="none" 
	d="
M628.731934,73.859863 
	C628.758057,56.591923 628.784241,39.323986 628.903687,21.200407 
	C629.002991,19.233479 629.009033,18.122189 629.015076,17.010899 
	C630.927185,16.694056 632.838562,16.106264 634.751465,16.101412 
	C659.523438,16.038553 684.295593,16.057827 709.067749,16.058090 
	C718.168640,16.058187 718.168640,16.060251 718.277771,25.797537 
	C718.175903,28.536825 718.128662,30.368107 718.128540,32.199394 
	C718.124878,95.487206 718.076538,158.775131 718.225891,222.062592 
	C718.236877,226.741898 717.183228,228.323441 712.236267,228.256729 
	C691.588257,227.978271 670.934204,228.121002 650.282532,228.170334 
	C648.508972,228.174561 646.736511,228.627197 644.633606,228.850647 
	C643.868713,228.887314 643.433716,228.944885 642.571411,228.981018 
	C640.433044,228.978165 638.722107,228.996750 636.577759,228.965805 
	C633.829590,228.918533 631.514648,228.920792 629.117554,228.474121 
	C628.895935,224.950073 628.756531,221.874985 628.704834,218.355347 
	C628.648315,188.475418 628.504272,159.040039 628.394897,129.286758 
	C628.391174,128.321167 628.352783,127.673470 628.369385,126.622375 
	C628.384705,124.868286 628.345154,123.517570 628.524109,121.806808 
	C628.777527,109.634750 628.812317,97.822754 628.916809,85.638618 
	C628.985291,84.510887 628.984009,83.755302 629.028748,82.547356 
	C628.960449,79.349953 628.846191,76.604912 628.731934,73.859863 
z"/>
<path fill="#AFE2FF" opacity="1.000000" stroke="none" 
	d="
M744.999146,229.443542 
	C747.728394,228.941650 750.455566,228.862747 753.182678,228.861420 
	C773.668213,228.851471 794.153687,228.869553 814.639221,228.849564 
	C820.796692,228.843567 821.042419,228.562393 821.045715,222.281921 
	C821.053772,206.792877 821.142273,191.302826 820.978516,175.815521 
	C820.940674,172.231766 821.797424,170.905319 825.675415,170.877701 
	C841.633545,170.764023 857.638306,170.953094 873.533997,169.782272 
	C897.639709,168.006699 921.593079,164.671722 942.568665,151.204391 
	C959.808105,140.135849 968.914001,123.715767 970.713867,103.622871 
	C971.975281,89.541107 971.628235,75.284119 964.888062,62.259377 
	C962.086060,56.844765 958.293518,51.942711 954.906616,46.464901 
	C963.112061,49.297958 968.651184,55.670189 973.669800,62.488544 
	C981.988342,73.790123 985.921326,86.522812 986.071350,100.615425 
	C986.205322,113.205254 984.886780,125.251091 979.343872,136.887207 
	C973.349182,149.471649 964.076111,158.369720 952.125305,164.945999 
	C938.513855,172.436081 923.634399,175.511459 908.508423,178.062668 
	C886.894287,181.708206 865.129883,180.954773 843.381714,181.041107 
	C835.987183,181.070465 835.986328,181.048737 835.985962,188.418549 
	C835.985229,203.407333 835.847046,218.398163 836.070435,233.383621 
	C836.136414,237.813385 834.618164,239.094528 830.295898,239.068085 
	C804.149780,238.908096 778.002258,238.988647 751.855164,238.987762 
	C744.991699,238.987518 744.991638,238.985809 744.994690,231.900818 
	C744.994934,231.234711 744.996216,230.568588 744.999146,229.443542 
z"/>
<path fill="#ADE1FF" opacity="1.000000" stroke="none" 
	d="
M300.035828,75.175224 
	C323.357086,75.107422 346.678375,75.039627 370.864319,75.046204 
	C372.215912,78.625732 372.702789,82.130890 373.189667,85.636055 
	C355.883453,85.728302 338.577179,85.815826 321.270996,85.914864 
	C313.258240,85.960709 313.929108,85.048950 313.927094,93.026909 
	C313.915436,139.469421 313.923309,185.911942 313.919220,232.354462 
	C313.918640,238.966614 313.905121,238.979919 307.248993,238.981491 
	C282.113434,238.987396 256.977692,239.037552 231.842422,238.957504 
	C221.761932,238.925400 223.088379,240.590256 223.018616,229.414825 
	C246.133377,228.920242 269.230377,228.912292 292.326904,228.806595 
	C294.197327,228.798035 296.064667,228.119247 298.480774,227.259979 
	C299.351227,224.882355 299.954193,222.997040 299.956696,221.110931 
	C300.021149,172.465759 300.023071,123.820480 300.035828,75.175224 
z"/>
<path fill="#A9E0FF" opacity="1.000000" stroke="none" 
	d="
M644.963501,228.871536 
	C646.736511,228.627197 648.508972,228.174561 650.282532,228.170334 
	C670.934204,228.121002 691.588257,227.978271 712.236267,228.256729 
	C717.183228,228.323441 718.236877,226.741898 718.225891,222.062592 
	C718.076538,158.775131 718.124878,95.487206 718.128540,32.199394 
	C718.128662,30.368107 718.175903,28.536825 718.341797,26.233757 
	C722.229309,25.810747 725.976196,25.859518 730.079224,25.811350 
	C730.572815,27.861647 730.829529,30.008842 730.830261,32.156128 
	C730.851562,95.428391 730.842529,158.700653 730.868958,221.972916 
	C730.869873,224.108383 731.187256,226.243729 731.673828,229.113251 
	C731.981812,232.838959 731.973083,235.830521 731.964355,238.822098 
	C703.296265,238.858368 674.628174,238.894638 645.487366,238.449371 
	C644.997620,234.935745 644.980591,231.903641 644.963501,228.871536 
z"/>
<path fill="#AEE2FF" opacity="1.000000" stroke="none" 
	d="
M54.976013,229.465851 
	C77.629974,228.958496 100.266365,228.908340 122.902763,228.858017 
	C129.549332,228.843246 129.892120,228.508270 129.892532,221.724487 
	C129.896393,159.299942 129.905396,96.875404 129.864868,34.450893 
	C129.862732,31.162498 129.427155,27.874388 129.435394,24.294765 
	C131.134720,24.643387 131.270187,28.227343 134.344757,25.887642 
	C134.752884,39.370945 134.871231,52.925667 134.938156,66.480637 
	C134.979630,74.879440 134.944580,74.879616 143.733276,75.237671 
	C144.144531,110.168594 144.086441,144.986679 144.049088,179.804810 
	C144.029602,197.964355 143.946289,216.124954 144.129059,234.282684 
	C144.167068,238.059265 143.000504,239.082703 139.301880,239.062469 
	C113.312820,238.920258 87.322624,238.987274 61.332787,238.986618 
	C54.946663,238.986450 54.946236,238.985092 54.947033,232.421951 
	C54.947132,231.588974 54.954472,230.755997 54.976013,229.465851 
z"/>
<path fill="#AEE2FF" opacity="1.000000" stroke="none" 
	d="
M628.982727,82.999710 
	C628.984009,83.755302 628.985291,84.510887 628.538086,85.741135 
	C627.728699,87.071251 627.059937,87.924492 627.053711,88.782532 
	C626.980347,98.903923 626.969421,109.026382 627.062561,119.147453 
	C627.071838,120.157654 627.872314,121.160568 628.305542,122.166862 
	C628.345154,123.517570 628.384705,124.868286 628.013916,126.631409 
	C627.043152,128.013367 626.482788,128.982925 625.905273,130.325104 
	C622.654602,136.759720 620.005432,143.239182 616.044983,148.781708 
	C610.681152,156.288239 603.158020,161.512650 594.659546,165.303314 
	C589.359131,167.667511 589.054504,168.906586 592.418030,173.245819 
	C602.092224,185.726517 611.848572,198.143692 621.609314,210.556992 
	C623.798584,213.341202 626.137390,216.007843 628.088867,218.953217 
	C627.157837,220.813934 626.545227,222.450043 625.932556,224.086136 
	C625.932556,224.086136 625.936096,224.026428 625.924561,223.727982 
	C625.302185,222.945389 624.691345,222.461243 624.080566,221.977112 
	C620.717407,217.640701 617.354248,213.304291 613.953186,208.257233 
	C612.959167,206.692963 612.003052,205.839340 611.046936,204.985687 
	C608.788696,202.178360 606.530396,199.371033 604.135193,195.890594 
	C603.006348,194.142685 602.014343,193.067856 601.022400,191.993042 
	C600.664429,191.599182 600.306458,191.205322 599.926331,190.177765 
	C599.253418,189.034607 598.602722,188.525177 597.951965,188.015747 
	C597.305054,187.261078 596.658142,186.506409 595.965271,185.113708 
	C595.311829,183.985077 594.704346,183.494446 594.096863,183.003799 
	C592.880798,181.453094 591.664795,179.902390 590.219849,177.760544 
	C589.024536,176.113770 588.058167,175.058136 587.091797,174.002502 
	C583.738953,169.641235 580.386047,165.279984 576.999146,160.188110 
	C576.976929,158.666107 576.988770,157.874741 577.000610,157.083374 
	C581.836487,154.167084 586.672424,151.250793 592.168823,148.167786 
	C593.879272,146.980225 594.929321,145.959366 595.979309,144.938507 
	C596.456726,144.360947 596.934143,143.783386 598.030884,143.066284 
	C599.768311,141.374756 600.886353,139.822754 602.004395,138.270752 
	C604.019714,135.064346 606.035034,131.857941 608.518372,128.263855 
	C609.944336,125.795204 610.902283,123.714249 611.860229,121.633286 
	C611.847412,121.268974 611.834534,120.904655 612.222412,120.221054 
	C612.790344,118.622375 612.957458,117.342972 613.124634,116.063568 
	C613.150879,115.286270 613.177124,114.508980 613.645508,113.287888 
	C614.428711,110.581734 614.769714,108.319382 615.110718,106.057022 
	C615.107178,104.319550 615.103577,102.582069 615.541870,100.351227 
	C619.216980,96.187180 618.871765,90.426018 615.273682,88.008202 
	C615.180847,85.954216 615.088074,83.900238 615.295532,81.151291 
	C615.957458,77.909706 617.189575,75.054909 613.312988,74.008881 
	C613.236938,73.548027 613.160889,73.087173 613.358765,72.034729 
	C612.955139,67.100739 612.356750,62.721004 608.232666,60.005905 
	C607.114868,58.018101 605.997070,56.030289 604.919006,53.270550 
	C605.003479,51.932041 605.048218,51.365463 605.092896,50.798882 
	C616.172729,56.832500 621.153809,67.480507 625.689392,78.862152 
	C626.644470,80.613670 627.813599,81.806686 628.982727,82.999710 
z"/>
<path fill="#B0E2FF" opacity="1.000000" stroke="none" 
	d="
M466.114044,171.119827 
	C466.835388,171.067566 467.556732,171.015305 468.914307,171.239380 
	C472.366394,171.326569 475.182220,171.137421 477.998047,170.948242 
	C479.989014,172.003220 482.341339,172.690414 483.881805,174.203949 
	C485.923828,176.210190 487.331512,178.862076 489.053223,181.579971 
	C487.968872,181.658707 486.854065,181.325989 485.715179,181.141663 
	C481.869537,180.519211 479.881195,181.582458 479.938446,186.088669 
	C480.141541,202.066513 479.891235,218.050171 480.104645,234.027740 
	C480.158051,238.029297 478.906647,239.094864 475.001160,239.071106 
	C449.366852,238.915222 423.731110,239.011749 398.095886,238.980194 
	C388.560913,238.968475 388.969330,240.283508 389.102417,229.335617 
	C412.066254,228.868530 435.007935,228.869705 457.949646,228.844604 
	C459.765991,228.842621 461.582153,228.658447 464.118103,228.199890 
	C465.224274,226.164474 465.935364,224.490372 465.947113,222.811356 
	C466.067810,205.581314 466.075104,188.350449 466.114044,171.119827 
z"/>
<path fill="#AEE2FF" opacity="1.000000" stroke="none" 
	d="
M629.199768,228.923065 
	C631.514648,228.920792 633.829590,228.918533 636.580688,229.314636 
	C638.339355,231.827408 639.661743,233.941833 640.986084,236.408691 
	C640.986267,237.462250 640.984619,238.163376 640.982910,238.864487 
	C607.326050,238.904205 573.669189,238.994858 540.012451,238.934433 
	C534.281433,238.924133 533.148743,233.701385 530.927856,229.487747 
	C543.348022,229.036804 555.779297,228.890320 568.210815,228.865234 
	C587.450806,228.826431 606.690918,228.870514 626.781860,228.928757 
	C628.155029,228.959732 628.677429,228.941391 629.199768,228.923065 
z"/>
<path fill="#71CBFF" opacity="1.000000" stroke="none" 
	d="
M373.313477,86.063835 
	C372.702789,82.130890 372.215912,78.625732 371.327209,75.012177 
	C370.970154,60.944187 371.001709,46.984524 371.075775,33.025078 
	C371.085358,31.216211 371.314453,29.408508 372.112915,27.215313 
	C373.557800,23.876646 374.331635,20.922932 375.105469,17.969215 
	C375.390045,19.891911 375.922119,21.814438 375.923401,23.737318 
	C375.966827,89.069450 375.953613,154.401611 375.968048,219.733780 
	C375.969849,227.813782 375.145782,226.950760 383.104065,227.097260 
	C385.014740,227.132416 386.916351,227.657227 388.984924,228.306702 
	C373.911469,229.915222 373.911469,229.915222 373.911469,214.906860 
	C373.911438,174.250778 373.918671,133.594681 373.891266,92.938606 
	C373.889801,90.789505 373.595306,88.640610 373.313477,86.063835 
z"/>
<path fill="#AEE2FF" opacity="1.000000" stroke="none" 
	d="
M149.827271,75.800888 
	C168.540298,75.280373 187.284943,75.187195 206.500824,75.607986 
	C206.937317,79.146049 206.902557,82.170143 206.867798,85.194229 
	C190.922058,85.153419 174.976303,85.105103 159.030533,85.074730 
	C150.059555,85.057640 150.059525,85.070976 149.827271,75.800888 
z"/>
<path fill="#9BDAFF" opacity="1.000000" stroke="none" 
	d="
M206.919067,85.643066 
	C206.902557,82.170143 206.937317,79.146049 206.959076,75.690231 
	C207.584747,77.017418 208.776428,78.774765 208.781372,80.535454 
	C208.913254,127.391319 208.909225,174.247559 208.994888,221.103607 
	C208.999023,223.363815 209.609970,225.622910 210.093399,228.247269 
	C206.288101,228.987534 207.101761,226.008545 207.095154,223.881897 
	C207.038208,205.576294 207.072876,187.270416 207.059143,168.964645 
	C207.038437,141.340393 207.000793,113.716141 206.919067,85.643066 
z"/>
<path fill="#B6E4FF" opacity="1.000000" stroke="none" 
	d="
M641.386597,238.903763 
	C640.984619,238.163376 640.986267,237.462250 641.378357,236.331085 
	C642.178772,233.601517 642.588745,231.301971 642.998718,229.002441 
	C643.433716,228.944885 643.868713,228.887314 644.633667,228.850647 
	C644.980591,231.903641 644.997620,234.935745 645.022461,238.407440 
	C643.950317,238.879044 642.870300,238.911041 641.386597,238.903763 
z"/>
<path fill="#ADE1FF" opacity="1.000000" stroke="none" 
	d="
M605.015076,50.482151 
	C605.048218,51.365463 605.003479,51.932041 604.910950,52.925499 
	C602.552734,50.860241 600.242310,48.368107 597.857178,45.545219 
	C600.167358,46.864780 602.552307,48.515099 605.015076,50.482151 
z"/>
<path fill="#ADE1FF" opacity="1.000000" stroke="none" 
	d="
M629.028748,82.547356 
	C627.813599,81.806686 626.644470,80.613670 625.710327,79.231674 
	C626.658264,77.390488 627.371216,75.738289 628.408020,73.972977 
	C628.846191,76.604912 628.960449,79.349953 629.028748,82.547356 
z"/>
<path fill="#9BDAFF" opacity="1.000000" stroke="none" 
	d="
M375.092804,17.723969 
	C374.331635,20.922932 373.557800,23.876646 372.400421,26.915161 
	C371.970520,23.998789 371.924164,20.997618 371.890137,17.552069 
	C372.675629,17.051237 373.448822,16.994781 374.608398,16.966684 
	C374.994843,16.995043 375.080139,17.478724 375.092804,17.723969 
z"/>
<path fill="#B6E4FF" opacity="1.000000" stroke="none" 
	d="
M732.355591,238.787964 
	C731.973083,235.830521 731.981812,232.838959 731.989136,229.388611 
	C732.446716,228.925415 732.905640,228.921005 733.701599,228.992218 
	C733.608032,232.296494 733.177490,235.525177 732.355591,238.787964 
z"/>
<path fill="#71CBFF" opacity="1.000000" stroke="none" 
	d="
M509.671051,16.855413 
	C506.714539,17.107983 503.452332,17.099503 500.035278,16.755447 
	C503.042084,16.478035 506.203735,16.536200 509.671051,16.855413 
z"/>
<path fill="#71CBFF" opacity="1.000000" stroke="none" 
	d="
M523.710876,17.911934 
	C522.346436,18.144972 520.737305,18.086615 519.003723,17.724983 
	C520.408203,17.487982 521.937256,17.554260 523.710876,17.911934 
z"/>
<path fill="#ADE1FF" opacity="1.000000" stroke="none" 
	d="
M628.675659,17.050779 
	C629.009033,18.122189 629.002991,19.233479 628.861755,20.743118 
	C628.596436,19.791199 628.466309,18.440929 628.675659,17.050779 
z"/>
<path fill="#71CBFF" opacity="1.000000" stroke="none" 
	d="
M534.278931,19.334015 
	C533.443848,19.536936 532.441467,19.496073 531.205078,19.145996 
	C532.017883,18.921265 533.064758,19.005749 534.278931,19.334015 
z"/>
<path fill="#A9E0FF" opacity="1.000000" stroke="none" 
	d="
M880.801575,17.872868 
	C880.301758,18.103807 879.596924,18.054888 878.764282,17.786732 
	C879.289795,17.575998 879.943237,17.584501 880.801575,17.872868 
z"/>
<path fill="#A9E0FF" opacity="1.000000" stroke="none" 
	d="
M891.134521,19.210236 
	C890.626221,19.444046 890.010315,19.447866 889.199036,19.190296 
	C889.678101,18.946018 890.352539,18.963131 891.134521,19.210236 
z"/>
<path fill="#AEE2FF" opacity="1.000000" stroke="none" 
	d="
M129.972839,18.892372 
	C129.454254,18.521051 129.211014,18.032097 129.005920,17.256313 
	C129.445450,17.571236 129.846832,18.172987 129.972839,18.892372 
z"/>
<path fill="#AEE2FF" opacity="1.000000" stroke="none" 
	d="
M135.906250,16.154701 
	C135.892929,16.728937 135.583450,17.251978 134.972809,17.860239 
	C134.984451,17.331474 135.297256,16.717489 135.906250,16.154701 
z"/>
<path fill="#FBFEFF" opacity="1.000000" stroke="none" 
	d="
M523.863708,86.087372 
	C528.510437,97.334053 524.041565,107.391365 512.115356,109.635399 
	C502.246399,111.492332 492.012054,111.407715 481.310974,111.761673 
	C480.466766,103.242195 480.117981,95.142967 480.203278,87.048332 
	C480.213989,86.029984 482.541718,84.127686 483.742615,84.169426 
	C497.122375,84.634468 510.491608,85.401672 523.863708,86.087372 
z"/>
<path fill="#ADE1FF" opacity="1.000000" stroke="none" 
	d="
M523.900269,85.725716 
	C510.491608,85.401672 497.122375,84.634468 483.742615,84.169426 
	C482.541718,84.127686 480.213989,86.029984 480.203278,87.048332 
	C480.117981,95.142967 480.466766,103.242195 480.843079,111.736938 
	C476.266541,112.081161 471.521576,112.147224 466.801056,111.838600 
	C466.146454,111.795807 465.111572,109.908272 465.100220,108.865494 
	C464.977020,97.555229 465.023224,86.243126 465.023224,74.528702 
	C466.491058,74.309898 467.746521,73.933769 468.991272,73.966393 
	C481.610718,74.297165 494.267212,74.224129 506.831146,75.260567 
	C513.707764,75.827843 520.598328,78.017303 523.900269,85.725716 
z"/>
<path fill="#71CBFF" opacity="1.000000" stroke="none" 
	d="
M465.704163,171.157043 
	C466.075104,188.350449 466.067810,205.581314 465.947113,222.811356 
	C465.935364,224.490372 465.224274,226.164474 464.449158,227.947891 
	C464.053528,210.750565 464.012604,193.446030 464.094360,176.142090 
	C464.102203,174.490952 464.876068,172.843445 465.704163,171.157043 
z"/>
<path fill="#ADE1FF" opacity="1.000000" stroke="none" 
	d="
M615.186035,88.461319 
	C618.871765,90.426018 619.216980,96.187180 615.623657,99.924553 
	C615.208496,96.298973 615.153442,92.606712 615.186035,88.461319 
z"/>
<path fill="#ADE1FF" opacity="1.000000" stroke="none" 
	d="
M608.216919,60.368141 
	C612.356750,62.721004 612.955139,67.100739 613.386108,71.684479 
	C611.493408,68.194023 609.847290,64.462204 608.216919,60.368141 
z"/>
<path fill="#ADE1FF" opacity="1.000000" stroke="none" 
	d="
M629.117554,228.474121 
	C628.677429,228.941391 628.155029,228.959732 627.240112,228.960068 
	C626.573730,227.561966 626.299927,226.181870 625.979309,224.443954 
	C626.545227,222.450043 627.157837,220.813934 628.139771,218.970245 
	C628.509155,218.762665 628.617249,218.799881 628.617188,218.799881 
	C628.756531,221.874985 628.895935,224.950073 629.117554,228.474121 
z"/>
<path fill="#71CBFF" opacity="1.000000" stroke="none" 
	d="
M477.712524,170.679749 
	C475.182220,171.137421 472.366394,171.326569 469.276001,171.229858 
	C471.809937,170.766418 474.618469,170.588837 477.712524,170.679749 
z"/>
<path fill="#ADE1FF" opacity="1.000000" stroke="none" 
	d="
M613.240112,74.381241 
	C617.189575,75.054909 615.957458,77.909706 615.330688,80.710541 
	C614.432861,78.894379 613.800110,76.823990 613.240112,74.381241 
z"/>
<path fill="#ADE1FF" opacity="1.000000" stroke="none" 
	d="
M614.826721,106.284042 
	C614.769714,108.319382 614.428711,110.581734 613.764160,112.915398 
	C613.807983,110.828163 614.175354,108.669617 614.826721,106.284042 
z"/>
<path fill="#ADE1FF" opacity="1.000000" stroke="none" 
	d="
M611.542175,121.781624 
	C610.902283,123.714249 609.944336,125.795204 608.663208,127.934006 
	C609.301392,125.971230 610.262756,123.950592 611.542175,121.781624 
z"/>
<path fill="#ADE1FF" opacity="1.000000" stroke="none" 
	d="
M601.702393,138.360687 
	C600.886353,139.822754 599.768311,141.374756 598.294006,142.952789 
	C599.091980,141.469421 600.246216,139.960022 601.702393,138.360687 
z"/>
<path fill="#ADE1FF" opacity="1.000000" stroke="none" 
	d="
M587.105591,174.324158 
	C588.058167,175.058136 589.024536,176.113770 589.995544,177.515686 
	C589.039856,176.789902 588.079651,175.717850 587.105591,174.324158 
z"/>
<path fill="#ADE1FF" opacity="1.000000" stroke="none" 
	d="
M601.056702,192.318527 
	C602.014343,193.067856 603.006348,194.142685 604.010742,195.573914 
	C603.045837,194.834869 602.068420,193.739441 601.056702,192.318527 
z"/>
<path fill="#ADE1FF" opacity="1.000000" stroke="none" 
	d="
M595.659241,144.995636 
	C594.929321,145.959366 593.879272,146.980225 592.475464,148.019867 
	C593.194214,147.043365 594.266724,146.048065 595.659241,144.995636 
z"/>
<path fill="#ADE1FF" opacity="1.000000" stroke="none" 
	d="
M612.834961,116.273041 
	C612.957458,117.342972 612.790344,118.622375 612.278564,119.952499 
	C612.137756,118.829643 612.341553,117.656075 612.834961,116.273041 
z"/>
<path fill="#ADE1FF" opacity="1.000000" stroke="none" 
	d="
M611.079590,205.319077 
	C612.003052,205.839340 612.959167,206.692963 613.904419,207.914551 
	C612.966492,207.405823 612.039368,206.529144 611.079590,205.319077 
z"/>
<path fill="#ADE1FF" opacity="1.000000" stroke="none" 
	d="
M576.672485,157.113190 
	C576.988770,157.874741 576.976929,158.666107 576.931763,159.857849 
	C576.713867,159.219803 576.529114,158.181412 576.672485,157.113190 
z"/>
<path fill="#ADE1FF" opacity="1.000000" stroke="none" 
	d="
M594.119019,183.317047 
	C594.704346,183.494446 595.311829,183.985077 595.935608,184.805588 
	C595.348328,184.633759 594.744812,184.132034 594.119019,183.317047 
z"/>
<path fill="#ADE1FF" opacity="1.000000" stroke="none" 
	d="
M598.001831,188.333496 
	C598.602722,188.525177 599.253418,189.034607 599.905579,189.897949 
	C599.288574,189.718323 598.670166,189.184784 598.001831,188.333496 
z"/>
<path fill="#ADE1FF" opacity="1.000000" stroke="none" 
	d="
M624.101624,222.291412 
	C624.691345,222.461243 625.302185,222.945389 625.932129,223.753983 
	C625.341797,223.587524 624.732239,223.096634 624.101624,222.291412 
z"/>
<path fill="#FBFEFF" opacity="1.000000" stroke="none" 
	d="
M879.877136,86.087509 
	C883.334167,97.838516 880.030701,107.517204 868.569641,109.542526 
	C858.518860,111.318634 848.163025,111.368347 837.308167,111.769051 
	C836.451050,103.255257 836.093811,95.151733 836.172791,87.052475 
	C836.182739,86.033958 838.521423,84.128853 839.727905,84.170670 
	C853.117065,84.634811 866.495667,85.402115 879.877136,86.087509 
z"/>
<path fill="#ADE1FF" opacity="1.000000" stroke="none" 
	d="
M879.888977,85.729546 
	C866.495667,85.402115 853.117065,84.634811 839.727905,84.170670 
	C838.521423,84.128853 836.182739,86.033958 836.172791,87.052475 
	C836.093811,95.151733 836.451050,103.255257 836.840210,111.754410 
	C835.088379,112.131760 833.170532,112.124405 831.253296,112.090584 
	C821.042419,111.910431 821.042603,111.908134 821.042480,101.887863 
	C821.042419,93.909935 821.143921,85.930046 820.989380,77.955101 
	C820.931458,74.963234 821.866821,73.780006 824.961731,73.897530 
	C837.721619,74.382065 850.522583,74.266724 863.237000,75.273758 
	C870.026855,75.811539 876.500671,78.463135 879.888977,85.729546 
z"/>
<path fill="#9BDAFF" opacity="1.000000" stroke="none" 
	d="
M299.635681,75.203163 
	C300.023071,123.820480 300.021149,172.465759 299.956696,221.110931 
	C299.954193,222.997040 299.351227,224.882355 298.671753,226.897675 
	C298.239105,224.369766 298.096985,221.712219 298.096191,219.054657 
	C298.082581,172.949402 298.072998,126.844131 298.134705,80.738960 
	C298.137146,78.902519 298.852417,77.067032 299.635681,75.203163 
z"/>
<path fill="#FBFEFF" opacity="1.000000" stroke="none" 
	d="
M628.704834,218.355347 
	C628.617249,218.799881 628.509155,218.762665 628.458252,218.745636 
	C626.137390,216.007843 623.798584,213.341202 621.609314,210.556992 
	C611.848572,198.143692 602.092224,185.726517 592.418030,173.245819 
	C589.054504,168.906586 589.359131,167.667511 594.659546,165.303314 
	C603.158020,161.512650 610.681152,156.288239 616.044983,148.781708 
	C620.005432,143.239182 622.654602,136.759720 626.318359,130.327347 
	C627.285889,129.839539 627.823059,129.722107 628.360229,129.604645 
	C628.504272,159.040039 628.648315,188.475418 628.704834,218.355347 
z"/>
<path fill="#ADE1FF" opacity="1.000000" stroke="none" 
	d="
M628.524109,121.806808 
	C627.872314,121.160568 627.071838,120.157654 627.062561,119.147453 
	C626.969421,109.026382 626.980347,98.903923 627.053711,88.782532 
	C627.059937,87.924492 627.728699,87.071251 628.468384,86.113266 
	C628.812317,97.822754 628.777527,109.634750 628.524109,121.806808 
z"/>
<path fill="#FBFEFF" opacity="1.000000" stroke="none" 
	d="
M642.571411,228.981003 
	C642.588745,231.301971 642.178772,233.601517 641.376465,235.978638 
	C639.661743,233.941833 638.339355,231.827408 637.014038,229.364166 
	C638.722107,228.996750 640.433044,228.978165 642.571411,228.981003 
z"/>
<path fill="#ADE1FF" opacity="1.000000" stroke="none" 
	d="
M628.394897,129.286774 
	C627.823059,129.722107 627.285889,129.839539 626.335632,129.954742 
	C626.482788,128.982925 627.043152,128.013367 627.958984,127.034790 
	C628.352783,127.673470 628.391174,128.321167 628.394897,129.286774 
z"/>
</svg>